<?xml version="1.0" encoding="UTF-8" standalone="no"?>
<!DOCTYPE svg PUBLIC "-//W3C//DTD SVG 1.1//EN" "http://www.w3.org/Graphics/SVG/1.1/DTD/svg11.dtd">
<svg xmlns="http://www.w3.org/2000/svg" xmlns:xlink="http://www.w3.org/1999/xlink" version="1.1" width="351pt" height="108pt" viewBox="0 0 351 108">
<g enable-background="new">
<g>
<clipPath id="cp0">
<path transform="matrix(.001968504,0,0,.001968504,0,0)" d="M 0 0 L 178308 0 L 178308 54864 L 0 54864 L 0 0 Z "/>
</clipPath>
<g clip-path="url(#cp0)">
<path transform="matrix(.001968504,0,0,.001968504,0,0)" d="M 0 0 L 178308 0 L 178308 54864 L 0 54864 Z " fill-opacity="0" fill-rule="evenodd"/>
<path transform="matrix(.001968504,0,0,.001968504,0,0)" d="M 4103 0 L 11159 0 L 11159 9012 L 4103 9012 Z " fill-opacity="0" fill-rule="evenodd"/>
<symbol id="font_1_24">
<path d="M .546875 0 L .4580078 .22705078 L .171875 .22705078 L .083984378 0 L 0 0 L .28222657 .7167969 L .35205079 .7167969 L .6328125 0 L .546875 0 M .4321289 .3017578 L .3491211 .5229492 C .3383789 .55094406 .3273112 .58528646 .31591798 .62597659 C .3087565 .59472659 .2985026 .5603841 .28515626 .5229492 L .20117188 .3017578 L .4321289 .3017578 Z "/>
</symbol>
<use xlink:href="#font_1_24" transform="matrix(14,0,0,-14,14.826772,20.189999)"/>
<path transform="matrix(.001968504,0,0,.001968504,0,0)" d="M 57825.744 0 L 64881.744 0 L 64881.744 9012 L 57825.744 9012 Z " fill-opacity="0" fill-rule="evenodd"/>
<symbol id="font_1_25">
<path d="M 0 .7138672 L .20166016 .7138672 C .29638673 .7138672 .36490885 .69970706 .40722657 .6713867 C .44954429 .6430664 .47070313 .5983073 .47070313 .5371094 C .47070313 .49479167 .45882163 .4597982 .4350586 .4321289 C .4116211 .40478517 .37727867 .38704429 .33203126 .37890626 L .33203126 .37402345 C .4404297 .35546876 .4946289 .2985026 .4946289 .203125 C .4946289 .13932292 .47298179 .08951823 .4296875 .053710939 C .38671876 .017903647 .3264974 0 .24902344 0 L 0 0 L 0 .7138672 M .08300781 .40820313 L .21972656 .40820313 C .2783203 .40820313 .32047526 .41731773 .3461914 .43554688 C .37190757 .45410157 .38476563 .4851888 .38476563 .5288086 C .38476563 .56884768 .37044273 .59765627 .34179688 .6152344 C .31315104 .633138 .26757813 .64208987 .20507813 .64208987 L .08300781 .64208987 L .08300781 .40820313 M .08300781 .33789063 L .08300781 .07080078 L .2319336 .07080078 C .28955079 .07080078 .33284507 .08186849 .3618164 .104003909 C .39111329 .12646485 .40576173 .16145833 .40576173 .20898438 C .40576173 .25325523 .39078776 .28580729 .36083985 .30664063 C .33121745 .32747398 .28597007 .33789063 .22509766 .33789063 L .08300781 .33789063 Z "/>
</symbol>
<use xlink:href="#font_1_25" transform="matrix(14,0,0,-14,121.95422,20.189999)"/>
<path transform="matrix(.001968504,0,0,.001968504,0,0)" d="M 67856.089 19237.291 L 76808.089 19237.291 L 76808.089 10285.292 L 95432.089 10285.292 L 95432.089 19237.291 L 104384.089 19237.291 L 104384.089 37141.294 L 95432.089 37141.294 L 95432.089 46093.294 L 76808.089 46093.294 L 76808.089 37141.294 L 67856.089 37141.294 Z " fill-opacity="0" fill-rule="evenodd"/>
<path transform="matrix(.001968504,0,0,.001968504,0,0)" stroke-width="762" stroke-linecap="butt" stroke-linejoin="round" fill="none" stroke="#000000" d="M 67856.089 19237.291 L 76808.089 19237.291 L 76808.089 10285.292 L 95432.089 10285.292 L 95432.089 19237.291 L 104384.089 19237.291 L 104384.089 37141.294 L 95432.089 37141.294 L 95432.089 46093.294 L 76808.089 46093.294 L 76808.089 37141.294 L 67856.089 37141.294 Z "/>
<path transform="matrix(.001968504,0,0,.001968504,0,0)" d="M 114107.3 0 L 121163.3 0 L 121163.3 9012 L 114107.3 9012 Z " fill-opacity="0" fill-rule="evenodd"/>
<symbol id="font_1_26">
<path d="M .34277345 .65966799 C .2643229 .65966799 .2023112 .63346359 .15673828 .5810547 C .11149088 .5289714 .08886719 .45751954 .08886719 .36669923 C .08886719 .27327476 .110677089 .20100911 .15429688 .14990235 C .19824219 .099121097 .2607422 .07373047 .34179688 .07373047 C .39160157 .07373047 .44840495 .08268229 .51220706 .10058594 L .51220706 .027832032 C .46272788 .009277344 .40169273 0 .32910157 0 C .22395833 0 .14274089 .031901044 .08544922 .095703128 C .028483073 .1595052 0 .25016276 0 .36767579 C 0 .4412435 .013671875 .5056966 .041015626 .56103518 C .0686849 .6163737 .10839844 .6590169 .16015625 .68896487 C .21223958 .7189128 .2734375 .7338867 .34375 .7338867 C .41861979 .7338867 .48404948 .72021487 .54003909 .6928711 L .5048828 .62158206 C .45084635 .64697268 .3968099 .65966799 .34277345 .65966799 Z "/>
</symbol>
<use xlink:href="#font_1_26" transform="matrix(14,0,0,-14,232.22515,20.326718)"/>
<path transform="matrix(.001968504,0,0,.001968504,0,0)" d="M 132355.78 10285.292 L 168883.78 10285.292 L 168883.78 46093.294 L 132355.78 46093.294 Z " fill-opacity="0" fill-rule="evenodd"/>
<path transform="matrix(.001968504,0,0,.001968504,0,0)" stroke-width="762" stroke-linecap="butt" stroke-linejoin="round" fill="none" stroke="#000000" d="M 132355.78 10285.292 L 168883.78 10285.292 L 168883.78 46093.294 L 132355.78 46093.294 Z "/>
<path transform="matrix(.001968504,0,0,.001968504,0,0)" d="M 8439.214 28664.86 L 19356.254 10454.937 L 41567.455 10454.937 L 30976.286 28442.29 L 41592.748 46472.16 L 19230.768 46472.16 Z " fill-opacity="0" fill-rule="evenodd"/>
<path transform="matrix(.001968504,0,0,.001968504,0,0)" stroke-width="762" stroke-linecap="butt" stroke-linejoin="round" fill="none" stroke="#000000" d="M 8439.214 28664.86 L 19356.254 10454.937 L 41567.455 10454.937 L 30976.286 28442.29 L 41592.748 46472.16 L 19230.768 46472.16 Z "/>
</g>
</g>
</g>
</svg>
